<?xml version="1.0" encoding="UTF-8"?>
<svg xmlns="http://www.w3.org/2000/svg" viewBox="0 0 1107 590.5">
  <defs>
    <style>
      .cls-1 {
        stroke-miterlimit: 10;
      }

      .cls-1, .cls-2 {
        stroke: #000;
      }

      .cls-3 {
        fill: #5bcaea;
      }

      .cls-2 {
        stroke-linecap: round;
        stroke-linejoin: round;
      }
    </style>
  </defs>
  <g id="Layer_3">
    <path class="cls-2" d="M395.5,267s11.3-10.06,27-20c13.56-8.59,30.33-15.58,35.8-22.13,12.43-14.88,46.2-57.87,53.2-56.44,10.79,2.21,25.19,32.22,33,39.57,6.13,5.77,23.27,10.25,36,18,8.95,5.44,24.07,13.47,30,17,1.54.92,3.06,1.89,4.55.89,9.61-6.43,46.06-31.29,73.45-56.89,27.51-25.71,42.77-46.55,60-50,5-1,36.24,28.31,39,31l37,38c15,15,24,10,48,11,12.29.51,20.5,2.61,24.38,4.11,1.24.48,2.62.35,3.75-.36,0,0,31.56-19.4,39.87-25.75,9.26-7.08,30.41-28.02,30.41-28.02,9.59-8.98,12.24-4.71,17.44-.71,0,0,14.81,15.38,28.15,29.72,6.82,7.33,11.43,16.89,15,23,8,14,19,6,33,12,12.62,5.41,42,31,42,31-22-12-43.03-36.28-69-26-6.5,2.57-10.77-16.48-20-30-6.92-10.13-19-20-26-26-6.16-5.28-11-10-23,1,0,0-15.65,15.05-21,19-9.83,7.27-39.57,27.85-39.57,27.85,0,0,40.97,22.47,60.57,38.15,20,16,85.25,24.42,85.25,24.42-17.25-2.42-73.25-7.42-101.77-28.3-6.82-5-56.48-32.11-70.48-11.11-15.14,22.71,88.71,87.09,88.71,87.09l-82.71-44.09c-12.38-6.34-20.76-15.75-27-28l-13.29-21.68c-4.78-9.37-20.96-21.94-27.66-26.49-10.05-6.83-27.6-29.16-36.05-38.83-7-8-29-27-29-27-1.66-1.81-6.01-1.94-8.25-.93-12.92,5.82-33.62,32.17-66.75,58.93-26,21-45,34-60,43-14.52,8.71-46.11,19.94-69,33-42.17,24.06-84.61,56.03-84.61,55.07,0-.85,42.28-34.9,80.61-59.07,23.48-14.81,50.16-27.76,58-30,7-2-11.35-8.79-22-16-9.77-6.61-22.54-12.93-28-13-3.87-.05-10,10-10,10-6.27,4.84-20-47.69-34.82-47.84-15.18-.16-32.93,37.04-46.82,45.67-7.56,4.7-24.23,9.59-38.36,17.17-16.46,8.83-29,19-29,19Z"/>
    <path class="cls-3" d="M1105.86,262.02c.06.04.12.08.18.12.3-4.19.46-8.41.46-12.65C1106.5,111.7,947.34,0,751,0s-355.5,111.7-355.5,249.5c0,5.55.26,11.06.77,16.53,3.35-2.86,13.12-10.92,25.74-18.91,13.56-8.59,30.33-15.58,35.8-22.13,12.43-14.88,46.2-57.87,53.2-56.44,10.79,2.21,25.19,32.22,33,39.57,6.13,5.77,23.27,10.25,36,18,8.95,5.44,24.07,13.47,30,17,1.54.92,3.06,1.89,4.55.89,9.61-6.43,46.06-31.29,73.45-56.89,27.51-25.71,42.77-46.55,60-50,5-1,36.24,28.31,39,31l37,38c15,15,24,10,48,11,12.29.51,20.5,2.61,24.38,4.11,1.24.48,2.62.35,3.75-.36,0,0,31.56-19.4,39.87-25.75,9.26-7.08,30.41-28.02,30.41-28.02,9.59-8.98,12.24-4.71,17.44-.71,0,0,14.81,15.38,28.15,29.72,6.82,7.33,11.43,16.89,15,23,8,14,19,6,33,12,12.62,5.41,42,31,42,31-.05-.03-.11-.06-.16-.09Z"/>
  </g>
  <g id="Layer_4">
    <g>
      <g>
        <ellipse class="cls-1" cx="499.09" cy="522.5" rx="11.39" ry="8.02" transform="translate(-185.67 753.15) rotate(-64.93)"/>
        <ellipse class="cls-1" cx="526.74" cy="509.94" rx="11.78" ry="9.11" transform="translate(-104.51 882.81) rotate(-74.64)"/>
        <path class="cls-1" d="M557.19,522.29c3.3,4.86,3.16,10.7-.31,13.05-3.47,2.35-8.95.32-12.25-4.54s-3.16-10.7.31-13.05c3.47-2.35,8.95-.32,12.25,4.54Z"/>
        <path class="cls-1" d="M485.35,562.62c-1.63-.62-4.47-25.79,9.11-24.29,13.67,1.52,1.68,28.83,1.52,28.84-.11,0,1.43-14.29-3.04-15.18-7.6-1.52-6.52,11.03-7.6,10.62Z"/>
        <path class="cls-1" d="M511.17,561.11c-1.63-.62-4.56-34.91,11.58-33.61,17.31,1.39,3.59,35.29,3.61,35.13,1.52-16.7-1.4-22.23-5.13-21.47-8.54,1.74-8.99,20.36-10.06,19.95Z"/>
        <path class="cls-1" d="M555.23,570.21c1.63-.62,1.41-31.06-9.12-29.06-9.11,1.74-3.19,22.98-3.03,22.99.11,0,.14-11.04,4.56-12.14,6.08-1.52,6.52,18.62,7.6,18.21Z"/>
      </g>
      <g>
        <path d="M445.11,518.64c5.51.81,9.98,3.04,13.42,6.69,3.44,3.65,5.16,8.82,5.16,15.51,0,8.4-3.29,14.62-9.86,18.68-6.58,4.06-15.2,6.08-25.88,6.08h-25.49c-1.14,0-2.03-.3-2.67-.89s-.96-1.32-.96-2.17c0-.81.32-1.52.96-2.13s1.51-.92,2.6-.92h11.39v-71.08h-11.82c-1.09,0-1.95-.31-2.56-.92-.62-.62-.93-1.35-.93-2.21,0-.81.3-1.51.89-2.1.59-.59,1.44-.89,2.53-.89h25.35c8.92,0,16.08,1.54,21.47,4.62,5.39,3.08,8.08,8.23,8.08,15.44,0,4.17-1.1,7.68-3.31,10.53s-5,4.77-8.37,5.76ZM429.87,517.71c3.7,0,7.12-.52,10.25-1.57,3.13-1.04,5.67-2.7,7.62-4.98,1.95-2.28,2.92-5.12,2.92-8.54,0-5.12-1.96-8.78-5.87-10.96s-9.46-3.27-16.63-3.27h-7.55v29.31h9.26ZM428.16,559.48c9.07,0,16.12-1.52,21.15-4.55,5.03-3.04,7.55-8.09,7.55-15.15,0-4.74-1.2-8.32-3.6-10.74-2.4-2.42-5.51-4.01-9.33-4.77-3.82-.76-8.51-1.14-14.06-1.14h-9.26v36.36h7.55Z"/>
        <path d="M627.18,522.13v-8.54c-6.36,0-11.99,1.25-16.88,3.74-4.89,2.49-8.28,6.11-10.18,10.85v31.59h23.92c.9,0,1.6.28,2.1.85s.75,1.26.75,2.06c0,.76-.26,1.43-.78,2.03-.52.59-1.23.89-2.14.89h-43.43c-1.04,0-1.85-.3-2.42-.89s-.85-1.29-.85-2.1c0-.76.26-1.42.78-1.99.52-.57,1.26-.85,2.21-.85h13.03v-44.61l-8.69,1.78c-.19.05-.47.07-.85.07-.9,0-1.6-.28-2.1-.85s-.75-1.23-.75-1.99c0-.66.19-1.25.57-1.74.38-.5.9-.82,1.57-.96l12.18-2.42c.62-.14,1.16-.21,1.64-.21,1.04,0,1.74.33,2.1,1s.56,1.66.61,2.99l.28,7.4c5.41-8.3,14.71-12.45,27.91-12.45,2.28,0,3.89.36,4.84,1.07.95.71,1.42,1.78,1.42,3.2v9.82c0,1.28-.34,2.26-1.03,2.95-.69.69-1.51,1.03-2.46,1.03s-1.69-.32-2.35-.96c-.67-.64-1-1.55-1-2.74Z"/>
        <path d="M683,483.78v53.43l27.27-20.85h-7.33c-.95,0-1.69-.28-2.21-.85-.52-.57-.78-1.26-.78-2.06s.28-1.51.85-2.1,1.38-.89,2.42-.89h22.57c.95,0,1.67.31,2.17.92s.75,1.4.75,2.35c0,.66-.28,1.27-.85,1.81s-1.23.82-1.99.82h-6.34l-22.57,17.5,24.28,25.9h6.19c.9,0,1.6.3,2.1.89s.75,1.27.75,2.03c0,.81-.25,1.49-.75,2.06s-1.2.85-2.1.85h-22.29c-.95,0-1.69-.3-2.21-.89-.52-.59-.78-1.27-.78-2.03,0-.81.28-1.49.85-2.06s1.38-.85,2.42-.85h7.83l-21.29-22.63-8.97,6.55v16.08h5.06c.85,0,1.53.3,2.03.89s.75,1.27.75,2.03c0,.81-.25,1.49-.75,2.06s-1.2.85-2.1.85h-23.78c-1,0-1.79-.3-2.39-.89-.59-.59-.89-1.29-.89-2.1,0-.76.26-1.42.78-1.99.52-.57,1.26-.85,2.21-.85h12.25v-71.15l-12.1,1.71c-.14.05-.31.07-.5.07-.9,0-1.61-.3-2.14-.89-.52-.59-.78-1.29-.78-2.1,0-.71.19-1.34.57-1.89.38-.55.95-.87,1.71-.96l16.66-2.99.85-.07c.76,0,1.38.2,1.85.6.47.4.71.96.71,1.67Z"/>
        <path d="M815.94,565.6h-56.68c-1.04,0-1.85-.31-2.42-.92s-.85-1.33-.85-2.13c0-.76.26-1.41.78-1.96.52-.55,1.26-.82,2.21-.82h26.49v-45.32l-23.71,3.2-.5.07c-.9,0-1.61-.3-2.14-.89-.52-.59-.78-1.29-.78-2.1,0-.71.19-1.34.57-1.89.38-.55.95-.87,1.71-.96l28.34-3.91c.14-.05.4-.07.78-.07.76,0,1.38.2,1.85.6.47.4.71.96.71,1.67v49.59h23.71c.9,0,1.6.3,2.1.89s.75,1.27.75,2.03c0,.81-.26,1.49-.78,2.06s-1.23.85-2.14.85ZM781.62,488.19c0-1.66.58-3.06,1.74-4.2,1.16-1.14,2.55-1.71,4.17-1.71s2.99.57,4.13,1.71c1.14,1.14,1.71,2.54,1.71,4.2s-.56,2.99-1.67,4.13c-1.12,1.14-2.5,1.71-4.17,1.71s-3.06-.57-4.2-1.71-1.71-2.51-1.71-4.13Z"/>
        <path d="M890.21,527.18c0-4.32-1.08-7.66-3.24-10.03s-5.35-3.56-9.58-3.56-8.22.83-11.71,2.49-6.21,3.75-8.15,6.26c-1.95,2.51-2.92,5-2.92,7.47v29.95h7.48c1.09,0,1.93.28,2.53.85s.89,1.23.89,1.99c0,.81-.32,1.51-.96,2.1s-1.51.89-2.6.89h-21.57c-1.04,0-1.85-.31-2.42-.92s-.85-1.33-.85-2.13c0-.76.26-1.41.78-1.96s1.26-.82,2.21-.82h7.69v-44.61l-7.69,1.57c-.47.14-.95.21-1.42.21-.81,0-1.47-.26-1.99-.78s-.78-1.16-.78-1.92c0-.66.19-1.27.57-1.81s.97-.91,1.78-1.1l11.68-2.35c.66-.09,1.09-.14,1.28-.14,1.76,0,2.68.92,2.78,2.77l.36,8.54c1.19-2.32,2.94-4.42,5.27-6.3,2.33-1.87,5.01-3.36,8.05-4.45,3.04-1.09,6.17-1.64,9.4-1.64,6.69,0,11.7,1.73,15.02,5.19,3.32,3.46,4.98,8.37,4.98,14.73v32.09h7.76c.9,0,1.6.28,2.1.85s.75,1.23.75,1.99c0,.81-.26,1.51-.78,2.1s-1.26.89-2.21.89h-24.57c-1.04,0-1.85-.31-2.42-.92s-.85-1.33-.85-2.13c0-.76.26-1.41.78-1.96s1.26-.82,2.21-.82h10.4v-32.59Z"/>
        <path d="M943.25,552.08c0,1.19.26,2.19.78,3.02.52.83,1.55,1.49,3.1,1.99s3.79.75,6.73.75h6.62c5.84,0,10.54.42,14.1,1.25s6.29,2.38,8.19,4.66,2.85,5.6,2.85,9.96c0,3.7-1.36,6.81-4.09,9.32s-6.31,4.39-10.75,5.62-9.2,1.85-14.28,1.85c-6.41,0-11.65-1.1-15.74-3.31-4.08-2.21-6.12-5.92-6.12-11.13,0-3.42.78-6.39,2.35-8.93,1.57-2.54,3.61-4.42,6.12-5.66-2.23-1.09-3.9-2.34-5.02-3.74-1.12-1.4-1.67-3.17-1.67-5.3,0-1.71.57-3.33,1.71-4.87,1.14-1.54,2.52-2.8,4.13-3.77s3.11-1.55,4.49-1.74c-4.08-1.66-7.14-3.64-9.19-5.94-2.04-2.3-3.06-5.4-3.06-9.28,0-4.17,1.03-7.7,3.1-10.57,2.06-2.87,4.84-5,8.33-6.4s7.35-2.1,11.57-2.1c3.23,0,6.31.47,9.26,1.42s5.53,2.35,7.76,4.2l10.82-7.19c2.94-1.99,5.81-2.99,8.62-2.99s4.13,1.21,4.13,3.63c0,1.09-.75,1.97-2.24,2.63s-3.9,1-7.23,1l-12.03,5.27c2.71,3.37,4.06,7.19,4.06,11.45,0,6.21-1.98,10.77-5.95,13.66s-9.96,4.34-17.98,4.34c-2.42,0-4.66.31-6.73.92s-3.7,1.46-4.91,2.53c-1.21,1.07-1.82,2.22-1.82,3.45ZM956.93,539.91c4.98,0,9.04-.92,12.18-2.77s4.7-5.03,4.7-9.53c0-4.84-1.54-8.38-4.63-10.64-3.09-2.25-7.03-3.38-11.82-3.38s-8.54,1.11-11.54,3.34-4.49,5.6-4.49,10.1c0,4.17,1.46,7.36,4.38,9.57s6.66,3.31,11.21,3.31ZM960.7,562.97h-13.1c-.9.33-1.83,1.15-2.78,2.45-.95,1.3-1.74,2.77-2.39,4.41s-.96,3.12-.96,4.45c0,3.94,1.2,6.65,3.6,8.15,2.4,1.49,6.16,2.24,11.29,2.24,5.98,0,11.21-.85,15.7-2.56,4.49-1.71,6.73-4.41,6.73-8.11,0-2.94-.56-5.19-1.67-6.76s-2.95-2.67-5.52-3.31c-2.56-.64-6.19-.96-10.89-.96Z"/>
        <path d="M1023.57,523.9c0-5.83,2.2-9.98,6.59-12.45s9.84-3.7,16.34-3.7c4.13,0,8.12.63,11.96,1.89s6.48,2.81,7.9,4.66v-2.63c-.05-1.09.24-1.96.85-2.6s1.33-.96,2.14-.96,1.5.31,2.06.92.85,1.47.85,2.56l-.14,14.3c-.09.9-.36,1.57-.78,1.99s-1.12.64-2.06.64c-1.19,0-1.95-.45-2.28-1.35s-.52-2.47-.57-4.7c-1.28-2.99-3.71-5.22-7.3-6.69s-7.96-2.21-13.14-2.21c-10.06,0-15.1,3.08-15.1,9.25,0,2.18.66,3.95,1.99,5.3s3.68,2.41,7.05,3.17l18.44,3.7c4.6.9,8.15,2.54,10.65,4.91,2.49,2.37,3.74,6,3.74,10.89,0,5.31-2.1,9.31-6.3,11.99s-9.84,4.02-16.91,4.02c-4.46,0-8.6-.66-12.43-1.99-3.82-1.33-7.04-3.49-9.65-6.47v4.27c0,1-.25,1.74-.75,2.24s-1.1.75-1.82.75c-.76,0-1.42-.26-1.99-.78s-.85-1.19-.85-1.99l.14-16.08c0-1.23.26-2.16.78-2.77s1.12-.92,1.78-.92c.81,0,1.44.24,1.89.71s.68,1.47.68,2.99c0,2.66.96,5.08,2.88,7.26,1.92,2.18,4.55,3.89,7.87,5.12,3.32,1.23,7,1.85,11.04,1.85,5.41,0,9.55-.84,12.43-2.53,2.87-1.68,4.31-4.26,4.31-7.72,0-2.42-.64-4.38-1.92-5.87-1.28-1.49-3.44-2.53-6.48-3.09l-18.94-3.7c-4.75-.9-8.43-2.49-11.04-4.77s-3.92-5.41-3.92-9.39Z"/>
      </g>
    </g>
    <g>
      <g>
        <path d="M632.15,350.17c-4.02,0-7.76-1.06-10.84-3.07-4.24-2.77-7-7.09-7.97-12.5-1.37-7.63.99-16.27,6.49-23.7,6.57-8.89,16.48-14.41,25.86-14.41,4.02,0,7.76,1.06,10.84,3.07,4.24,2.77,7,7.09,7.97,12.5,1.37,7.63-.99,16.27-6.49,23.7-6.57,8.89-16.48,14.41-25.86,14.41h0Z"/>
        <path d="M645.69,296.99c3.92,0,7.57,1.03,10.56,2.99,4.12,2.69,6.8,6.9,7.75,12.17,1.35,7.49-.98,15.99-6.4,23.31-6.48,8.76-16.23,14.21-25.46,14.21-3.92,0-7.57-1.03-10.56-2.99-4.12-2.69-6.8-6.9-7.75-12.17-1.35-7.49.98-15.99,6.4-23.31,6.48-8.76,16.23-14.21,25.46-14.21M645.69,295.99c-9.19,0-19.39,5.31-26.26,14.61-9.88,13.36-9.15,29.89,1.61,36.92,3.27,2.14,7.1,3.15,11.11,3.15,9.19,0,19.39-5.31,26.26-14.61,9.88-13.36,9.15-29.89-1.61-36.92-3.27-2.14-7.1-3.15-11.11-3.15h0Z"/>
      </g>
      <g>
        <path d="M739.15,316.32c-8.96,0-16.7-3.22-21.78-9.08-4.33-4.98-6.32-11.56-5.62-18.53.93-9.24,6.35-18.28,14.87-24.82,7.48-5.74,16.48-8.9,25.34-8.9s16.7,3.22,21.78,9.08c4.33,4.98,6.32,11.56,5.62,18.53-.93,9.24-6.35,18.28-14.87,24.82-7.48,5.74-16.48,8.9-25.34,8.9h0Z"/>
        <path d="M751.96,255.5c8.82,0,16.42,3.16,21.4,8.9,4.23,4.88,6.19,11.32,5.5,18.15-.92,9.1-6.27,18.02-14.67,24.47-7.4,5.67-16.29,8.8-25.04,8.8s-16.42-3.16-21.4-8.9c-4.23-4.88-6.19-11.32-5.5-18.15.92-9.1,6.27-18.02,14.67-24.47,7.4-5.67,16.29-8.8,25.04-8.8M751.96,254.5c-8.6,0-17.81,3-25.65,9.01-15.77,12.1-19.95,31.83-9.32,44.07,5.35,6.16,13.44,9.25,22.16,9.25s17.81-3,25.65-9.01c15.77-12.1,19.95-31.83,9.32-44.07-5.35-6.16-13.44-9.25-22.16-9.25h0Z"/>
      </g>
      <g>
        <path d="M850.41,350.61c-9.14,0-18.77-5.51-25.14-14.37-5.39-7.51-7.71-16.27-6.35-24.06.96-5.52,3.68-9.95,7.85-12.81,3.09-2.12,6.85-3.24,10.89-3.24,9.13,0,18.77,5.51,25.14,14.37,5.39,7.51,7.71,16.27,6.35,24.06-.96,5.52-3.68,9.95-7.85,12.81-3.09,2.12-6.85,3.24-10.89,3.24h0Z"/>
        <path d="M837.67,296.63c8.98,0,18.45,5.43,24.73,14.16,5.32,7.4,7.6,16.03,6.26,23.68-.94,5.38-3.58,9.7-7.64,12.48-3,2.06-6.67,3.15-10.61,3.15-8.98,0-18.45-5.43-24.73-14.16-5.32-7.4-7.6-16.03-6.26-23.68.94-5.38,3.58-9.7,7.64-12.48,3-2.06,6.67-3.15,10.61-3.15M837.67,295.63c-4.04,0-7.89,1.07-11.18,3.33-10.59,7.27-11.32,24.09-1.63,37.57,6.68,9.3,16.57,14.58,25.54,14.58,4.04,0,7.89-1.07,11.18-3.33,10.59-7.27,11.32-24.09,1.63-37.57-6.68-9.3-16.57-14.58-25.54-14.58h0Z"/>
      </g>
      <g>
        <path d="M705.94,456.5c-.69,0-1.47-.4-2.31-1.19-4.98-4.62-11.2-18.22-13.46-35.26-2.63-19.83,1.04-38.25,10.31-51.86,10.79-15.83,25.94-24.91,41.56-24.91,13.17,0,24.98,6.64,33.26,18.69,12.67,18.46,4.52,49.11-7.34,71.64-5.4,10.26-10.6,16.62-12.32,16.62-1.26-.29-1.55-5.76-1.83-11.04-.74-13.82-1.87-34.7-16.68-37.06-.7-.11-1.4-.17-2.07-.17-12.75,0-17.49,19.79-21.31,35.69-2.33,9.7-4.52,18.86-7.81,18.86Z"/>
        <path d="M742.04,343.78c13,0,24.67,6.56,32.85,18.47,5.92,8.63,7.67,20.48,5.19,35.23-2.58,15.33-8.93,28.98-12.49,35.76-5.96,11.36-10.72,16.36-11.91,16.48-.85-.71-1.14-6.17-1.38-10.57-.75-13.98-1.89-35.1-17.1-37.53-.73-.12-1.45-.17-2.15-.17-13.14,0-17.94,20-21.79,36.07-2.18,9.08-4.43,18.47-7.32,18.47-.56,0-1.22-.35-1.97-1.05-4.79-4.45-11.09-18.21-13.3-34.96-2.61-19.71,1.02-38,10.23-51.51,10.7-15.69,25.7-24.7,41.15-24.7M742.04,342.78c-15.06,0-30.75,8.67-41.97,25.13-21.67,31.79-7.12,78.17,3.22,87.77.97.9,1.85,1.32,2.65,1.32,9.2,0,8.51-54.55,29.11-54.55.64,0,1.31.05,1.99.16,21.22,3.39,13.62,46.92,18.38,48.09.06.02.13.02.2.02,6.27,0,40.54-59.23,20.08-89.03-8.78-12.78-21-18.91-33.67-18.91h0Z"/>
      </g>
      <g>
        <path d="M624.12,444.27c-.05,0-.1,0-.12-.02-.33-.59,1.46-4.38,3.05-7.73,4.48-9.49,11.25-23.83,6.35-32.55-2.2-3.92-6.58-6.25-13.02-6.93-1.43-.15-2.84-.23-4.18-.23-23.78,0-27.57,23.76-29.6,36.53-.58,3.62-1.23,7.73-2.06,7.73-.11,0-.52-.09-1.35-1.27-3.21-4.54-6.15-16.51-5.57-30.61.68-16.4,6.02-30.62,15.04-40.04,8.54-8.92,18.87-13.84,29.07-13.84,12.94,0,23.67,7.72,29.44,21.19,7.83,18.28-5.47,41.7-11.55,50.92-6.89,10.45-13.67,16.86-15.5,16.86Z"/>
        <path d="M621.74,355.8c12.73,0,23.29,7.61,28.98,20.89,7.73,18.05-5.47,41.29-11.51,50.45-6.64,10.07-12.64,15.71-14.66,16.53.28-1.27,1.69-4.26,2.95-6.93,4.53-9.58,11.36-24.06,6.34-33.01-2.28-4.06-6.79-6.48-13.4-7.19-1.45-.15-2.87-.23-4.23-.23-24.21,0-28.04,24.04-30.09,36.95-.49,3.05-1.03,6.49-1.62,7.25-.14-.1-.43-.36-.89-1-3.08-4.36-6.05-16.47-5.48-30.3.68-16.28,5.97-30.39,14.9-39.72,8.45-8.82,18.65-13.68,28.71-13.68M621.74,354.8c-9.93,0-20.48,4.64-29.43,13.99-21.11,22.04-16.2,61.84-9.52,71.29.72,1.02,1.29,1.48,1.76,1.48,4.58,0-.51-44.26,31.66-44.26,1.31,0,2.69.07,4.12.23,31.83,3.39-.08,45.44,3.45,47.16.1.05.21.07.34.07,5.49,0,39.12-41.39,27.51-68.48-6.12-14.28-17.52-21.49-29.9-21.49h0Z"/>
      </g>
      <g>
        <path d="M861.06,458.29c-.71,0-1.68-.22-2.91-.66-5.24-1.87-14.51-10.23-22.11-22.61-5.04-8.21-13.04-24.54-10.03-41.62,3.34-18.96,16-31.2,32.24-31.2,6.97,0,14.25,2.39,21.04,6.9,20.91,13.89,21.03,52.93,17.56,66.86-.8,3.21-1.59,4.12-1.89,4.15h0c-.84,0-2.91-3.41-4.9-6.72-5.35-8.86-13.43-22.25-24.59-22.25-2.49,0-5.02.69-7.53,2.05-11.92,6.46-4.67,22.07.63,33.46,2.34,5.03,4.54,9.77,3.64,11.19-.07.11-.29.45-1.16.45Z"/>
        <path d="M858.24,362.71c6.87,0,14.05,2.36,20.76,6.82,7.04,4.68,12.26,12.61,15.5,23.57,3.4,11.49,3.62,23.08,3.45,28.97-.3,10.31-2.07,16.6-3.06,17.51-.84-.51-2.74-3.65-4.42-6.43-5.41-8.96-13.57-22.5-25.02-22.5-2.57,0-5.18.71-7.77,2.11-12.34,6.68-4.66,23.19.42,34.11,2.08,4.46,4.43,9.52,3.67,10.71-.12.18-.47.22-.74.22-.65,0-1.57-.21-2.74-.63-5.03-1.79-14.4-10.25-21.85-22.4-5-8.15-12.95-24.35-9.96-41.27,3.3-18.7,15.76-30.79,31.74-30.79M858.24,361.71c-15.89,0-29.26,11.96-32.73,31.62-5.2,29.5,21.3,60.81,32.47,64.79,1.31.47,2.32.69,3.07.69,9.54,0-21.71-34.96-2.88-45.16,2.55-1.38,4.98-1.99,7.29-1.99,15.97,0,25.97,28.97,29.47,28.97.02,0,.04,0,.06,0,4.69-.46,10.27-54.84-15.44-71.92-7.18-4.77-14.48-6.98-21.32-6.98h0Z"/>
      </g>
    </g>
  </g>
</svg>